<svg width="924" height="212" viewBox="0 0 924 212" fill="none" xmlns="http://www.w3.org/2000/svg">
<path d="M333.8 139L317.4 84.4L301.9 139H293.2L279.3 79.4C278.967 77.8667 278.7 76.8 278.5 76.2C278.3 75.5333 278 75.1 277.6 74.9C277.267 74.7 276.733 74.5667 276 74.5L270.5 73.8V71H298.2V73.8L292.7 74.5C291.633 74.6333 291.067 74.9 291 75.3C290.933 75.7 291.133 77.0667 291.6 79.4L302 126L317.3 71H325.6L341.9 125L352.5 79.4C353.033 77.0667 353.233 75.7 353.1 75.3C352.967 74.9 352.4 74.6333 351.4 74.5L345.9 73.8V71H365.3V73.8L359.8 74.5C359.067 74.5667 358.533 74.7 358.2 74.9C357.867 75.1 357.567 75.5333 357.3 76.2C357.1 76.8 356.833 77.8667 356.5 79.4L342.6 139H333.8ZM398.095 140C391.961 140 386.761 138.7 382.495 136.1C378.228 133.433 374.995 129.7 372.795 124.9C370.595 120.1 369.495 114.5 369.495 108.1V101.8C369.495 95.4 370.461 89.8333 372.395 85.1C374.395 80.3 377.361 76.6 381.295 74C385.228 71.3333 390.161 70 396.095 70C401.161 70 405.395 71 408.795 73C412.195 74.9333 414.695 77.5333 416.295 80.8C417.961 84 418.661 87.5 418.395 91.3L406.695 94.2C407.361 87.5333 406.661 82.4333 404.595 78.9C402.595 75.3 399.595 73.5 395.595 73.5C391.328 73.5 388.028 75.3 385.695 78.9C383.428 82.5 382.295 88.4667 382.295 96.8V113.1C382.295 121.367 383.595 127.333 386.195 131C388.795 134.667 392.761 136.5 398.095 136.5C400.295 136.5 402.328 136.1 404.195 135.3C406.128 134.5 407.728 133.133 408.995 131.2C410.328 129.2 411.161 126.4 411.495 122.8L418.695 124.7C417.761 128.433 416.261 131.433 414.195 133.7C412.128 135.967 409.695 137.6 406.895 138.6C404.161 139.533 401.228 140 398.095 140ZM426.863 73.8V71H454.463C459.796 71 464.029 71.7333 467.163 73.2C470.296 74.6667 472.529 76.6 473.863 79C475.263 81.4 475.963 84.0667 475.963 87V89.7C475.963 93.1667 474.863 96.1667 472.663 98.7C470.529 101.167 467.396 102.933 463.263 104C468.329 104.867 472.196 106.667 474.863 109.4C477.596 112.133 478.963 115.567 478.963 119.7V122.5C478.963 125.5 478.263 128.267 476.863 130.8C475.463 133.267 473.129 135.267 469.863 136.8C466.663 138.267 462.363 139 456.963 139H426.863V136.2L432.363 135.5C433.429 135.367 434.063 135.1 434.263 134.7C434.463 134.233 434.563 132.867 434.563 130.6V79.4C434.563 77.1333 434.463 75.8 434.263 75.4C434.063 74.9333 433.429 74.6333 432.363 74.5L426.863 73.8ZM454.463 74.5H446.563V102.5H454.463C457.329 102.5 459.496 101.533 460.963 99.6C462.429 97.6 463.163 94.4667 463.163 90.2V87C463.163 82.6667 462.429 79.5 460.963 77.5C459.496 75.5 457.329 74.5 454.463 74.5ZM456.963 106H446.563V135.5H456.963C459.963 135.5 462.229 134.5 463.763 132.5C465.363 130.433 466.163 127.1 466.163 122.5V119.2C466.163 110.4 463.096 106 456.963 106ZM541.747 140C535.614 140 530.414 138.7 526.147 136.1C521.88 133.433 518.647 129.7 516.447 124.9C514.247 120.1 513.147 114.5 513.147 108.1V101.8C513.147 95.4 514.114 89.8333 516.047 85.1C518.047 80.3 521.014 76.6 524.947 74C528.88 71.3333 533.814 70 539.747 70C544.814 70 549.047 71 552.447 73C555.847 74.9333 558.347 77.5333 559.947 80.8C561.614 84 562.314 87.5 562.047 91.3L550.347 94.2C551.014 87.5333 550.314 82.4333 548.247 78.9C546.247 75.3 543.247 73.5 539.247 73.5C534.98 73.5 531.68 75.3 529.347 78.9C527.08 82.5 525.947 88.4667 525.947 96.8V113.1C525.947 121.367 527.247 127.333 529.847 131C532.447 134.667 536.414 136.5 541.747 136.5C543.947 136.5 545.98 136.1 547.847 135.3C549.78 134.5 551.38 133.133 552.647 131.2C553.98 129.2 554.814 126.4 555.147 122.8L562.347 124.7C561.414 128.433 559.914 131.433 557.847 133.7C555.78 135.967 553.347 137.6 550.547 138.6C547.814 139.533 544.88 140 541.747 140ZM584.915 136.2V139H565.615V136.2L571.115 135.5C571.848 135.367 572.382 135.233 572.715 135.1C573.048 134.9 573.348 134.467 573.615 133.8C573.882 133.133 574.248 132.067 574.715 130.6L593.815 71H602.415L621.615 130.6C622.082 132.067 622.448 133.133 622.715 133.8C622.982 134.467 623.282 134.9 623.615 135.1C624.015 135.233 624.548 135.367 625.215 135.5L630.715 136.2V139H603.115V136.2L608.615 135.5C609.682 135.367 610.248 135.1 610.315 134.7C610.448 134.233 610.148 132.867 609.415 130.6L605.615 118.2H582.515L578.615 130.6C577.948 132.867 577.648 134.233 577.715 134.7C577.782 135.1 578.348 135.367 579.415 135.5L584.915 136.2ZM583.715 114.7H604.515L594.215 81.5L583.715 114.7ZM671.982 92.8H674.782V117.7H671.982L669.782 109.6C669.582 108.8 669.349 108.233 669.082 107.9C668.882 107.5 668.449 107.267 667.782 107.2C667.115 107.067 665.982 107 664.382 107H654.082V130.6C654.082 132.867 654.182 134.233 654.382 134.7C654.582 135.1 655.215 135.367 656.282 135.5L663.782 136.2V139H634.382V136.2L639.882 135.5C640.949 135.367 641.582 135.1 641.782 134.7C641.982 134.233 642.082 132.867 642.082 130.6V79.4C642.082 77.1333 641.982 75.8 641.782 75.4C641.582 74.9333 640.949 74.6333 639.882 74.5L634.382 73.8V71H681.782V88.2H678.982L675.782 77.1C675.582 76.3 675.349 75.7333 675.082 75.4C674.882 75 674.449 74.7667 673.782 74.7C673.115 74.5667 671.982 74.5 670.382 74.5H654.082V103.5H664.382C665.982 103.5 667.115 103.467 667.782 103.4C668.449 103.267 668.882 103.033 669.082 102.7C669.349 102.3 669.582 101.7 669.782 100.9L671.982 92.8ZM736.453 121.8H739.253V139H689.753V136.2L695.253 135.5C696.32 135.367 696.953 135.1 697.153 134.7C697.353 134.233 697.453 132.867 697.453 130.6V79.4C697.453 77.1333 697.353 75.8 697.153 75.4C696.953 74.9333 696.32 74.6333 695.253 74.5L689.753 73.8V71H738.253V88.2H735.453L732.253 77.1C732.053 76.3 731.82 75.7333 731.553 75.4C731.353 75 730.92 74.7667 730.253 74.7C729.586 74.5667 728.453 74.5 726.853 74.5H709.453V102.9H720.853C722.453 102.9 723.586 102.867 724.253 102.8C724.92 102.667 725.353 102.433 725.553 102.1C725.82 101.7 726.053 101.1 726.253 100.3L728.453 92.2H731.253V117.1H728.453L726.253 109C726.053 108.2 725.82 107.633 725.553 107.3C725.353 106.9 724.92 106.667 724.253 106.6C723.586 106.467 722.453 106.4 720.853 106.4H709.453V135.5H727.853C729.453 135.5 730.586 135.467 731.253 135.4C731.92 135.267 732.353 135.033 732.553 134.7C732.82 134.3 733.053 133.7 733.253 132.9L736.453 121.8Z" fill="white"/>
<path d="M776.896 68.9687C793.617 109.581 835.787 90.0187 836.423 65.4583" stroke="white" stroke-width="3" stroke-linecap="round" stroke-linejoin="round"/>
<path d="M770.167 78.475C799.74 102.533 832.338 92.4583 847.833 70.2854M813.313 110.363C804.663 111.627 796.354 126.669 812.146 133.913C821.369 138.142 836 133.533 840.667 142.542M794.154 100.417C785.294 108.952 780.021 121.008 781.283 139.469" stroke="white" stroke-width="3" stroke-linecap="round" stroke-linejoin="round"/>
<path d="M807.854 92.35C808.75 97.6042 816.727 97.8292 824.871 97.9312C825.095 100.765 824.375 103.593 822.823 105.975C821.606 107.298 820.139 108.366 818.507 109.12C816.875 109.873 815.111 110.296 813.315 110.365M794.154 100.417C790.869 101.725 787.268 102.021 783.814 101.265C780.36 100.509 777.211 98.7362 774.773 96.175C779.248 94.4312 783.76 92.7167 794.519 95.7375C797.39 94.9875 797.71 93.2208 798.975 91.8312M823.931 103.933L818.069 104.933" stroke="white" stroke-width="3" stroke-linecap="round" stroke-linejoin="round"/>
<g clip-path="url(#clip0_1_3)">
<path d="M109.437 21C110.681 21 111.873 21.4939 112.752 22.3729C113.631 23.252 114.125 24.4443 114.125 25.6875C114.125 30.0938 116.694 32.3063 121.625 36L122 36.2813C126.444 39.6094 132.875 44.4188 132.875 53.8125C132.875 55.0557 132.381 56.248 131.502 57.1271C130.623 58.0061 129.431 58.5 128.188 58.5C126.944 58.5 125.752 58.0061 124.873 57.1271C123.994 56.248 123.5 55.0557 123.5 53.8125C123.5 49.4063 120.931 47.1938 116 43.5L115.625 43.2188C111.181 39.8906 104.75 35.0813 104.75 25.6875C104.75 24.4443 105.244 23.252 106.123 22.3729C107.002 21.4939 108.194 21 109.437 21ZM137.562 21C138.806 21 139.998 21.4939 140.877 22.3729C141.756 23.252 142.25 24.4443 142.25 25.6875C142.25 30.0938 144.819 32.3063 149.75 36L150.125 36.2813C154.569 39.6094 161 44.4188 161 53.8125C161 55.0557 160.506 56.248 159.627 57.1271C158.748 58.0061 157.556 58.5 156.312 58.5C155.069 58.5 153.877 58.0061 152.998 57.1271C152.119 56.248 151.625 55.0557 151.625 53.8125C151.625 49.4063 149.056 47.1938 144.125 43.5L143.75 43.2188C139.306 39.8906 132.875 35.0813 132.875 25.6875C132.875 24.4443 133.369 23.252 134.248 22.3729C135.127 21.4939 136.319 21 137.562 21ZM170.375 25.6875C170.375 24.4443 169.881 23.252 169.002 22.3729C168.123 21.4939 166.931 21 165.687 21C164.444 21 163.252 21.4939 162.373 22.3729C161.494 23.252 161 24.4443 161 25.6875C161 35.0813 167.431 39.8906 171.875 43.2188L172.25 43.5C177.181 47.1938 179.75 49.4063 179.75 53.8125C179.75 55.0557 180.244 56.248 181.123 57.1271C182.002 58.0061 183.194 58.5 184.438 58.5C185.681 58.5 186.873 58.0061 187.752 57.1271C188.631 56.248 189.125 55.0557 189.125 53.8125C189.125 44.4188 182.694 39.6094 178.25 36.2813L177.875 36C172.944 32.3063 170.375 30.0938 170.375 25.6875ZM207.875 77.25H212.563C218.779 77.25 224.74 79.7193 229.135 84.1147C233.531 88.5101 236 94.4715 236 100.688C236 106.904 233.531 112.865 229.135 117.26C224.74 121.656 218.779 124.125 212.563 124.125H205.934C202.55 136.11 194.942 146.466 184.516 153.278C174.089 160.09 161.55 162.898 149.215 161.184C136.879 159.469 125.581 153.348 117.407 143.951C109.234 134.554 104.738 122.517 104.75 110.063V76.2281C104.75 71.625 108.491 67.875 113.103 67.875H199.522C204.134 67.875 207.875 71.6156 207.875 76.2281V77.25ZM114.125 77.25V110.063C114.125 121.251 118.57 131.982 126.481 139.894C134.393 147.805 145.124 152.25 156.312 152.25C167.501 152.25 178.232 147.805 186.144 139.894C194.055 131.982 198.5 121.251 198.5 110.063V77.25H114.125ZM207.875 86.625V110.063C207.875 111.644 207.806 113.206 207.669 114.75H212.563C216.292 114.75 219.869 113.268 222.506 110.631C225.143 107.994 226.625 104.417 226.625 100.688C226.625 96.9579 225.143 93.3811 222.506 90.7438C219.869 88.1066 216.292 86.625 212.563 86.625H207.875Z" fill="#1A5D98"/>
</g>
<path d="M210.114 157.165C207.86 154.224 204.181 152.688 199.762 152.841C195.502 152.988 191.028 154.702 187.167 157.666C183.306 160.631 180.495 164.512 179.252 168.588C177.964 172.817 178.493 176.763 180.756 179.705C182.544 182.036 185.224 183.483 188.457 183.908C189.335 184.02 190.222 184.061 191.107 184.029C195.368 183.881 199.841 182.168 203.702 179.203C207.564 176.239 210.374 172.358 211.617 168.282C212.906 164.053 212.372 160.101 210.114 157.165ZM188.689 159.648C193.016 156.327 198.002 154.893 202.053 155.425C203.615 155.606 205.11 156.163 206.41 157.049C204.594 157.426 202.853 158.099 201.255 159.041C197.972 160.999 195.615 164.024 194.252 168.032C191.758 175.36 186.001 177.22 182.356 177.633C179.223 172.728 181.946 164.827 188.689 159.648ZM202.181 177.221C196.101 181.888 188.725 182.826 184.453 179.82C186.271 179.443 188.015 178.77 189.615 177.829C192.898 175.871 195.254 172.846 196.617 168.838C199.112 161.509 204.869 159.65 208.513 159.236C211.646 164.141 208.923 172.043 202.181 177.221Z" fill="#1A5D98"/>
<path d="M96.0031 139.842C93.4941 136.514 89.3681 134.753 84.3962 134.886C79.6022 135.014 74.5543 136.902 70.1844 140.203C65.8145 143.504 62.6183 147.845 61.1839 152.419C59.6971 157.166 60.258 161.61 62.7775 164.939C64.7686 167.577 67.7703 169.229 71.4037 169.735C72.3912 169.87 73.3882 169.923 74.3844 169.895C79.1784 169.766 84.2263 167.879 88.5962 164.578C92.9661 161.277 96.1623 156.936 97.5967 152.361C99.0834 147.615 98.518 143.165 96.0031 139.842ZM71.879 142.446C76.7763 138.749 82.3976 137.179 86.9503 137.813C88.7061 138.031 90.383 138.671 91.8373 139.678C89.7913 140.087 87.8263 140.829 86.0205 141.874C82.31 144.047 79.6326 147.43 78.0634 151.927C75.1925 160.149 68.6998 162.19 64.5965 162.623C61.1151 157.077 64.2478 148.212 71.879 142.446ZM86.9016 162.334C80.0206 167.53 71.715 168.52 66.9363 165.102C68.9844 164.693 70.9518 163.952 72.76 162.907C76.4705 160.733 79.148 157.351 80.7171 152.854C83.5881 144.632 90.0808 142.591 94.1841 142.158C97.6655 147.703 94.5328 156.568 86.9016 162.334Z" fill="#1A5D98"/>
<g clip-path="url(#clip1_1_3)">
<path d="M260.774 150.773C260.877 147.07 258.988 143.559 255.461 140.893C252.06 138.323 247.506 136.834 242.64 136.702C237.774 136.571 233.146 137.813 229.612 140.195C225.947 142.667 223.871 146.065 223.774 149.775C223.694 152.711 224.863 155.524 227.105 157.891C227.717 158.532 228.379 159.122 229.087 159.655C232.488 162.225 237.042 163.714 241.908 163.845C246.774 163.977 251.402 162.734 254.936 160.353C258.601 157.881 260.677 154.477 260.774 150.773ZM242.573 139.201C248.025 139.349 252.801 141.377 255.611 144.343C256.71 145.468 257.52 146.842 257.971 148.349C256.323 147.498 254.547 146.923 252.713 146.647C248.93 146.099 245.194 146.963 241.61 149.216C235.055 153.334 229.413 151.15 226.323 149.175C226.981 143.392 234.074 138.972 242.573 139.201ZM241.975 161.347C234.314 161.139 227.996 157.22 226.573 152.194C228.222 153.047 230 153.623 231.835 153.9C235.618 154.449 239.354 153.585 242.938 151.332C249.493 147.214 255.135 149.398 258.225 151.373C257.567 157.156 250.474 161.575 241.975 161.347Z" fill="#1A5D98"/>
</g>
<defs>
<clipPath id="clip0_1_3">
<rect width="150" height="150" fill="white" transform="translate(86 21)"/>
</clipPath>
<clipPath id="clip1_1_3">
<rect width="40" height="40" fill="white" transform="translate(243.037 122) rotate(46.5459)"/>
</clipPath>
</defs>
</svg>
